<svg xmlns="http://www.w3.org/2000/svg" viewBox="0 0 711.77 623"><defs><style>.cls-1{fill:#a2795c;}.cls-2{fill:#623f33;}.cls-3{fill:#ffc84a;}.cls-4{fill:#8f6951;}.cls-5{fill:#ad8366;}.cls-6{fill:#95b995;}.cls-7{fill:#80a68b;}.cls-8{fill:#734a3e;}.cls-9{fill:#fdc88e;}.cls-10{fill:#f5b97a;}.cls-11{fill:#00bea4;}.cls-12{fill:#ffd7a3;}.cls-13{fill:#e4b07b;}.cls-14{fill:#00ab9a;}.cls-15{fill:#5e342e;}.cls-16{fill:#c38762;}.cls-17{fill:#a46d4d;}.cls-18{fill:#d29771;}.cls-19{fill:#ffc85c;}.cls-20{fill:#ffa64e;}.cls-21{fill:#f6b47b;}.cls-22{fill:#e2a071;}.cls-23{fill:#9d6e48;}.cls-24{fill:#8d5f3d;}.cls-25{fill:#4f6e7f;}.cls-26{fill:#33546a;}</style></defs><g id="Layer_2" data-name="Layer 2"><g id="Layer_1-2" data-name="Layer 1"><path class="cls-1" d="M491,328.27l-.6-5.38a3.87,3.87,0,0,0-4.28-3.42l-.33,0L480,273.24a26.35,26.35,0,0,0-17.8-21.72l-32.14-10.71a13.16,13.16,0,0,0-12.65,2.37L408,240a13.15,13.15,0,0,1-9-12.49V206.29l28.36-11.81A39.52,39.52,0,0,0,451.62,158v-6.58a19.75,19.75,0,0,0,6.88-38.27l3.2-57.57A52.67,52.67,0,0,0,409.11,0H309.78a52.67,52.67,0,0,0-52.59,55.59l3.2,57.57a19.75,19.75,0,0,0,6.88,38.27V158a39.52,39.52,0,0,0,24.31,36.47l28.36,11.82v21.23a13.17,13.17,0,0,1-9,12.49l-9.47,3.16a13.17,13.17,0,0,0-12.66-2.37l-32.13,10.71a26.36,26.36,0,0,0-17.81,21.72l-5.78,46.26-.33,0a3.87,3.87,0,0,0-4.28,3.42l-.6,5.38a3.87,3.87,0,0,0,3.42,4.28l9.63,1.07V349a13.17,13.17,0,0,0,13.17,13.16H464.79A13.16,13.16,0,0,0,478,349V333.62l9.63-1.07A3.88,3.88,0,0,0,491,328.27Z"/><path class="cls-2" d="M257.37,55.59l3.49,62.92H458.38l3.49-62.92A52.67,52.67,0,0,0,409.28,0H310A52.67,52.67,0,0,0,257.37,55.59Z"/><path class="cls-3" d="M432.69,362.94V329.19h55.45l-7-55.95a26.39,26.39,0,0,0-17.91-21.72l-32.31-10.71a13.06,13.06,0,0,0-15.14,5.11,66.35,66.35,0,0,1-111.79,0,13.05,13.05,0,0,0-15.14-5.11l-32.31,10.71a26.38,26.38,0,0,0-17.91,21.72l-6.3,50.1L287,329.19v32.92H431.87v.83Z"/><path class="cls-4" d="M399,205.75h-79v21.78a13,13,0,0,1-6.6,11.24C368.56,248.44,399,205.75,399,205.75Z"/><path class="cls-5" d="M451.62,111.93V85.59A32.92,32.92,0,0,0,418.7,52.67H300.19a32.92,32.92,0,0,0-32.92,32.92v26.34a19.75,19.75,0,1,0,0,39.5V158a39.52,39.52,0,0,0,24.31,36.47l42.54,17.72a65.7,65.7,0,0,0,25.32,5.07h0a65.75,65.75,0,0,0,25.33-5.07l42.54-17.72A39.52,39.52,0,0,0,451.62,158v-6.58a19.75,19.75,0,0,0,0-39.5Z"/><path class="cls-2" d="M313.36,138.26h0a6.61,6.61,0,0,1-6.59-6.58v-6.59a6.61,6.61,0,0,1,6.59-6.58h0a6.6,6.6,0,0,1,6.58,6.58v6.59A6.6,6.6,0,0,1,313.36,138.26Z"/><path class="cls-2" d="M405.53,138.26h0a6.6,6.6,0,0,1-6.58-6.58v-6.59a6.6,6.6,0,0,1,6.58-6.58h0a6.6,6.6,0,0,1,6.58,6.58v6.59A6.6,6.6,0,0,1,405.53,138.26Z"/><path class="cls-4" d="M359.62,184.53c-11.7,0-22.65-2.88-30-7.91A6.58,6.58,0,1,1,337,165.74c5.17,3.52,13.64,5.62,22.63,5.62s17.46-2.1,22.63-5.62a6.58,6.58,0,1,1,7.41,10.88C382.28,181.65,371.33,184.53,359.62,184.53Z"/><path class="cls-6" d="M287,334.17V319.26A26.33,26.33,0,0,0,280.59,302L244.36,260.2a26.21,26.21,0,0,0-5.48,13l-6.88,55Z"/><path class="cls-7" d="M287,325.5l-54.26-6a3.86,3.86,0,0,0-4.28,3.42l-.6,5.38a3.87,3.87,0,0,0,3.42,4.28L287,338.74Z"/><path class="cls-6" d="M431.87,334.17V319.26A26.33,26.33,0,0,1,438.3,302l36.22-41.82a26.23,26.23,0,0,1,5.49,13l6.88,55Z"/><path class="cls-7" d="M431.87,325.5l54.26-6a3.87,3.87,0,0,1,4.28,3.42l.6,5.38a3.88,3.88,0,0,1-3.43,4.28l-55.71,6.19Z"/><path class="cls-1" d="M293.6,159.74V53.33a32.94,32.94,0,0,0-26.33,32.26v26.34a19.75,19.75,0,1,0,0,39.5V158a39.52,39.52,0,0,0,24.31,36.47l42.54,17.72a65.93,65.93,0,0,0,6.36,2.27c-18.72-13.7-31.21-25.68-38.55-33.54A31,31,0,0,1,293.6,159.74Z"/><path class="cls-8" d="M700.24,518c-6.17-13.17-.87-16.41-4.66-30.31-2.47-9.06-8-12.72-9.88-20.3-1.79-7.21,1.35-19.76-.54-25.79-3.42-10.9-7.7-13.78-9.88-22.77s3.57-15.91,1.65-25.51c-2.41-12-6.73-17-8.51-23.32-3.29-11.8-2.28-14.75-1.92-24.42.82-21.94-7.54-48.88-14-62.54-7.29-15.47-16.87-24.1-28.24-28.81h-77.1V579.28c90.53.82,164.6-26.33,164.6-26.33C711.49,529.35,707.41,533.25,700.24,518Z"/><path class="cls-2" d="M470.07,254.2c-11.37,4.71-20.95,13.34-28.24,28.81-6.45,13.66-14.82,40.6-14,62.54.36,9.67,1.37,12.62-1.92,24.42-1.78,6.36-6.1,11.29-8.51,23.32-1.92,9.6,3.84,16.46,1.65,25.51s-6.46,11.87-9.88,22.77c-1.89,6,1.25,18.58-.55,25.79-1.89,7.58-7.4,11.24-9.87,20.3-3.79,13.9,1.51,17.14-4.67,30.31-7.16,15.28-11.24,11.38-11.52,35,0,0,74.07,27.15,164.6,26.33V254.2Z"/><path class="cls-9" d="M669.28,583.26l-2.45-18.42-5.39-40.39a32.9,32.9,0,0,0-18.33-25.3l-25.4-12.24a5,5,0,0,0-6.58,2.3l-15.45-5.68a13.18,13.18,0,0,1-9-12.5V449.8L615,438a39.5,39.5,0,0,0,24.31-36.46v-6.35a19.76,19.76,0,1,0,0-39.51v-.05l0,0c-23.67-23.62-91-19.78-92.18-51.75C546,335.87,478.64,332,455,355.66h0a19.76,19.76,0,0,0,0,39.51v6.35A39.5,39.5,0,0,0,479.3,438l28.37,11.82V471a13.18,13.18,0,0,1-9,12.5l-15.46,5.68a4.94,4.94,0,0,0-6.57-2.3l-25.4,12.24a32.9,32.9,0,0,0-18.33,25.3l-5.39,40.38-2.45,18.43a19.75,19.75,0,0,0,19.57,22.36H649.7A19.75,19.75,0,0,0,669.28,583.26Z"/><path class="cls-10" d="M507.67,449.25V471a13.19,13.19,0,0,1-6.38,11.28c55.07,9.51,85.38-33.06,85.38-33.06Z"/><path class="cls-11" d="M669.33,583.26l-7.84-58.81a32.94,32.94,0,0,0-18.34-25.3l-25.4-12.24a4.89,4.89,0,0,0-6.64,2.43c-16.65,37.8-45.22,55.37-63.9,63.61-18.65-8.23-47.18-25.77-63.84-63.49a5,5,0,0,0-6.7-2.55l-25.39,12.24a32.94,32.94,0,0,0-18.34,25.3l-7.84,58.81a19.75,19.75,0,0,0,19.58,22.36H649.75A19.76,19.76,0,0,0,669.33,583.26Z"/><circle class="cls-9" cx="455.04" cy="375.42" r="19.75"/><path class="cls-12" d="M639.34,355.43V342.26a32.92,32.92,0,0,0-32.92-32.92H487.91A32.92,32.92,0,0,0,455,342.26v13.17a19.75,19.75,0,0,0,0,39.5v6.59A39.5,39.5,0,0,0,479.3,438l42.54,17.73a66,66,0,0,0,25.33,5.06h0a65.88,65.88,0,0,0,25.32-5.06L615,438a39.5,39.5,0,0,0,24.31-36.46v-6.59a19.75,19.75,0,1,0,0-39.5Z"/><path class="cls-9" d="M553.67,305.46l-9.79-5.76s-17,21.84-62.55,32.92c-22.84,5.56-26.34,23-26.34,23h0a19.76,19.76,0,0,0,0,39.51v6.58a39.52,39.52,0,0,0,24.31,36.47l42.54,17.72a64.17,64.17,0,0,0,6.36,2.26c-18.71-13.68-31.19-25.66-38.54-33.52a31,31,0,0,1-8.33-21.2V354.84C499.44,341.4,544.7,343.05,553.67,305.46Z"/><path class="cls-2" d="M501.08,382h0a6.6,6.6,0,0,1-6.58-6.58v-6.59a6.6,6.6,0,0,1,6.58-6.58h0a6.61,6.61,0,0,1,6.59,6.58v6.59A6.61,6.61,0,0,1,501.08,382Z"/><path class="cls-2" d="M593.26,382h0a6.61,6.61,0,0,1-6.59-6.58v-6.59a6.61,6.61,0,0,1,6.59-6.58h0a6.6,6.6,0,0,1,6.58,6.58v6.59A6.6,6.6,0,0,1,593.26,382Z"/><path class="cls-13" d="M547.21,428.27c-11.7,0-22.65-2.88-30-7.91a6.58,6.58,0,0,1,7.41-10.88c5.18,3.52,13.64,5.62,22.63,5.62s17.46-2.1,22.64-5.62a6.58,6.58,0,1,1,7.4,10.88C569.87,425.39,558.92,428.27,547.21,428.27Z"/><path class="cls-14" d="M551.42,562.12c31.8-15,56.14-40.12,70.85-72.8l-4.52-2.18a5,5,0,0,0-6.7,2.56c-16.65,37.71-45.18,55.25-63.84,63.48C528.56,545,500,527.41,483.37,489.7a5,5,0,0,0-6.7-2.56l-4.51,2.18c14.7,32.68,39,57.85,70.85,72.8l4.2,2Z"/><path class="cls-14" d="M474.75,577.41a32.89,32.89,0,0,0-6.94-20.21l-32.37-41.63a32.36,32.36,0,0,0-2.54,8.88l-7.84,58.81a19.75,19.75,0,0,0,19.58,22.36h30.11Z"/><path class="cls-14" d="M619.59,577.41a32.89,32.89,0,0,1,6.94-20.21l32.37-41.63a32.71,32.71,0,0,1,2.54,8.88l7.84,58.81a19.75,19.75,0,0,1-19.58,22.36H619.59Z"/><path class="cls-8" d="M567,224c-13.36,0-19.47,6.23-19.78,6.55-.3-.32-6.41-6.55-19.78-6.55-36.42,0-117.27,50.2-85.59,125.09L455,355.66c23.65-23.64,91-19.79,92.2-51.77,1.24,32,68.56,28.13,92.21,51.77l13.16-6.58C684.3,274.19,603.44,224,567,224Z"/><path class="cls-2" d="M527.42,223.75c-36.42,0-117.28,50.2-85.59,125.1v6.58H455c5.2-5.19,12.5-9.06,20.75-12.27,4.36-77.85,46.49-118.86,71.43-112.82l0,0C547,230.08,540.9,223.75,527.42,223.75Z"/><path class="cls-15" d="M310.89,379.3l0-.53a13,13,0,0,0-.14-20.82,13.08,13.08,0,0,0-3.37-21.41,13.09,13.09,0,0,0-7.49-21.36,13,13,0,0,0,2.95-8.21,13.17,13.17,0,0,0-13.17-13.17,12.38,12.38,0,0,0-1.93.2,13,13,0,0,0-15.05-19.32,12.9,12.9,0,0,0,.73-4.13,13.17,13.17,0,0,0-13.17-13.17c-.36,0-.7.08-1.06.11a13,13,0,0,0-16.48-12.38c-12.9-10-39.87-17.15-51.8-17.15s-20.25,1.64-25.46,3.28a25,25,0,0,1-14.91,0c-5.22-1.64-13.43-3.28-25.47-3.28s-38.9,7.12-51.8,17.15a13,13,0,0,0-16.47,12.38c-.36,0-.7-.11-1.06-.11a13,13,0,0,0-12.45,17.3,12.94,12.94,0,0,0-3.81-.63A13.1,13.1,0,0,0,28.27,294a12.38,12.38,0,0,0-1.93-.2A13.17,13.17,0,0,0,13.17,307a13,13,0,0,0,3,8.21,13.09,13.09,0,0,0-7.49,21.36A13.08,13.08,0,0,0,5.26,358a13,13,0,0,0-.14,20.82l0,.54A13,13,0,0,0,.82,389a13.19,13.19,0,0,0,7.91,12.07,13,13,0,0,0,8.62,21.24,13.14,13.14,0,0,0,12,18.54,12.87,12.87,0,0,0,3.36-.49A13.1,13.1,0,0,0,54.15,453.8c0,.35-.11.68-.11,1a13.12,13.12,0,0,0,24.69,6.25A13.14,13.14,0,0,0,104,462.8a13.11,13.11,0,0,0,14.43,7.12H197.6A13.12,13.12,0,0,0,212,462.8a13.13,13.13,0,0,0,25.25-1.72,13.13,13.13,0,0,0,24.7-6.25c0-.35-.08-.68-.11-1a13.07,13.07,0,0,0,21.44-13.45,12.81,12.81,0,0,0,3.36.49,13.14,13.14,0,0,0,12-18.54,13,13,0,0,0,8.62-21.24,13.11,13.11,0,0,0,3.59-21.76Z"/><path class="cls-16" d="M240.12,500l-33.25-12.23a13.17,13.17,0,0,1-9-12.49V454l28.36-11.81a39.52,39.52,0,0,0,24.31-36.47v-6.58a19.76,19.76,0,0,0,0-39.51V346.48a32.92,32.92,0,0,0-32.92-32.92H99.11a32.92,32.92,0,0,0-32.92,32.92v13.16a19.76,19.76,0,0,0,0,39.51v6.58A39.52,39.52,0,0,0,90.5,442.2L118.86,454v21.24a13.15,13.15,0,0,1-9,12.49L76.61,500a46.1,46.1,0,0,0-30.17,43.25v53.44a13.17,13.17,0,0,0,13.17,13.17H257.12a13.16,13.16,0,0,0,13.17-13.17V543.22A46.08,46.08,0,0,0,240.12,500Z"/><path class="cls-17" d="M118.86,453.46v21.78a13.15,13.15,0,0,1-6.38,11.28c55.08,9.52,85.39-33.06,85.39-33.06Z"/><path class="cls-18" d="M250.54,359.64V346.48a32.92,32.92,0,0,0-32.92-32.92H99.11a32.92,32.92,0,0,0-32.92,32.92v59.25A39.52,39.52,0,0,0,90.5,442.2L133,459.92A65.75,65.75,0,0,0,158.37,465h0a65.74,65.74,0,0,0,25.32-5.07l42.54-17.72a39.52,39.52,0,0,0,24.31-36.47v-6.58a19.76,19.76,0,0,0,0-39.51Z"/><path class="cls-2" d="M112.28,386h0a6.61,6.61,0,0,1-6.59-6.58v-6.59a6.61,6.61,0,0,1,6.59-6.58h0a6.6,6.6,0,0,1,6.58,6.58v6.59A6.6,6.6,0,0,1,112.28,386Z"/><path class="cls-2" d="M204.45,386h0a6.6,6.6,0,0,1-6.58-6.58v-6.59a6.6,6.6,0,0,1,6.58-6.58h0a6.61,6.61,0,0,1,6.59,6.58v6.59A6.61,6.61,0,0,1,204.45,386Z"/><path class="cls-17" d="M158,432.25c-11.7,0-22.65-2.88-30-7.91a6.58,6.58,0,0,1,7.41-10.88c5.18,3.52,13.64,5.62,22.63,5.62s17.46-2.1,22.64-5.62a6.58,6.58,0,0,1,7.4,10.88C180.67,429.37,169.72,432.25,158,432.25Z"/><path class="cls-16" d="M100.75,428.55a30.89,30.89,0,0,1-8.22-21.09V314.22a32.93,32.93,0,0,0-26.34,32.26v13.16a19.76,19.76,0,0,0,0,39.51v6.58A39.52,39.52,0,0,0,90.5,442.2L133,459.92a63.28,63.28,0,0,0,6.36,2.26C120.6,448.43,108.08,436.41,100.75,428.55Z"/><path class="cls-19" d="M233.59,496.81l-5.06,8.1A83.17,83.17,0,0,1,158,544h0A83.16,83.16,0,0,1,87.5,504.91l-5.07-8.1a6.57,6.57,0,0,0-9-2.16l-21.62,13a6.59,6.59,0,0,0-2.2,9.14l29.37,47H237l29.37-47a6.59,6.59,0,0,0-2.2-9.14l-21.63-13A6.58,6.58,0,0,0,233.59,496.81Z"/><path class="cls-20" d="M260.38,505.13l-11.3-6.78-31.2,49.92A32.92,32.92,0,0,1,190,563.75H126.77a32.93,32.93,0,0,1-27.92-15.48l-31.2-49.92-11.3,6.78,30.34,48.54a6.59,6.59,0,0,1-5.58,10.08H79.36v46.08h158V563.75h-1.75A6.59,6.59,0,0,1,230,553.67Z"/><path class="cls-21" d="M477.84,589.16l-1-9.22s0,0,0,0l-4.17.46-5.79-46.26A26.31,26.31,0,0,0,449,512.41l-37-12.32a6.54,6.54,0,0,0-8.21,3.85h0l-18.06-6a0,0,0,0,1,0,0V466.83L414.14,455a39.5,39.5,0,0,0,24.31-36.46V412a19.75,19.75,0,0,0,15.65-31.8c3.95-19.6,11.16-57.78,10.66-73.54-.34-10.53-7-24.64-26.33-32.92-34.55-14.8-77.87-19.2-92.15-32.9v0h.82V240c-14.42,13.82-58.13,18.25-93,33.2-19.5,8.36-26.24,22.59-26.58,33.22-.5,15.91,6.78,54.47,10.77,74.24a19.93,19.93,0,0,0,15.81,32.07v5.8A39.5,39.5,0,0,0,278.41,455l28.36,11.82v21.58a13.18,13.18,0,0,1-9,12.5l-9.08,3h0a6.54,6.54,0,0,0-8.19-3.83l-37,12.32a26.33,26.33,0,0,0-17.8,21.72l-5.79,46.26-.33,0a3.88,3.88,0,0,0-4.28,3.43l-.6,5.38a3.88,3.88,0,0,0,3.43,4.28l9.63,1.07v15.32A13.17,13.17,0,0,0,240.93,623H464.75a0,0,0,0,0,0,0V594.51l9.63-1.07A3.88,3.88,0,0,0,477.84,589.16Z"/><path class="cls-22" d="M306.77,466.63v21.79a13.15,13.15,0,0,1-6.38,11.27c55.08,9.52,85.39-33.06,85.39-33.06Z"/><path class="cls-23" d="M464.94,306.62c-.34-10.53-7-24.64-26.34-32.92-34.54-14.8-77.86-19.2-92.32-32.9v0h.82v0c-15,13.7-58.27,18.1-92.82,32.9-19.33,8.28-26,22.39-26.34,32.92-.69,21.64,13.17,85.59,13.17,85.94H451.77C451.77,392.21,465.63,328.26,464.94,306.62Z"/><path class="cls-24" d="M346.28,241.13v0c-14.3,13.69-57.64,18.09-92.2,32.89-19.34,8.29-26,22.39-26.35,32.92-.69,21.64,13.17,85.59,13.17,85.59h59.29V333.31c0-43.89,46.11-64.74,46.11-92.18h0Z"/><path class="cls-25" d="M466.84,534.13A26.32,26.32,0,0,0,449,512.41l-37-12.32a6.54,6.54,0,0,0-8,3.43c-9.13,19.7-22.05,41.15-57.77,66.81-35.73-25.66-48.65-47.11-57.78-66.81a6.54,6.54,0,0,0-8-3.43l-37,12.32a26.32,26.32,0,0,0-17.8,21.72l-6.27,50.09,54.41,5.86V623H418.7V590.08l54.41-5.86Z"/><path class="cls-9" d="M438.45,372.81V359.64a32.91,32.91,0,0,0-32.92-32.91H287a32.91,32.91,0,0,0-32.92,32.91v13.17a19.76,19.76,0,0,0,0,39.51v6.58a39.49,39.49,0,0,0,24.31,36.46L321,473.09a65.93,65.93,0,0,0,25.33,5.06h0a65.91,65.91,0,0,0,25.32-5.06l42.54-17.73a39.49,39.49,0,0,0,24.31-36.46v-6.58a19.76,19.76,0,0,0,0-39.51Z"/><path class="cls-2" d="M300.19,398.8h0a6.62,6.62,0,0,1-6.59-6.59v-6.58a6.62,6.62,0,0,1,6.59-6.59h0a6.61,6.61,0,0,1,6.58,6.59v6.58A6.61,6.61,0,0,1,300.19,398.8Z"/><path class="cls-2" d="M392.36,398.8h0a6.61,6.61,0,0,1-6.58-6.59v-6.58a6.61,6.61,0,0,1,6.58-6.59h0a6.62,6.62,0,0,1,6.59,6.59v6.58A6.62,6.62,0,0,1,392.36,398.8Z"/><path class="cls-22" d="M346.45,445.06c-11.7,0-22.65-2.88-30-7.9a6.59,6.59,0,0,1,7.41-10.89c5.18,3.52,13.64,5.63,22.63,5.63s17.46-2.11,22.63-5.63a6.59,6.59,0,0,1,7.41,10.89C369.11,442.18,358.16,445.06,346.45,445.06Z"/><path class="cls-21" d="M288.66,441.36a30.87,30.87,0,0,1-8.22-21.09V327a32.92,32.92,0,0,0-26.34,32.25v13.17a19.75,19.75,0,1,0,0,39.5v6.59A39.5,39.5,0,0,0,278.41,455L321,472.74c2.08.86,4.21,1.61,6.36,2.26C308.51,461.25,296,449.22,288.66,441.36Z"/><path class="cls-26" d="M273.85,594.7V579.8a26.33,26.33,0,0,0-6.43-17.25L231.2,520.74a26.23,26.23,0,0,0-5.49,13l-6.88,55C229.3,589.42,257.16,592.68,273.85,594.7Z"/><path class="cls-25" d="M273.85,586l-54.26-6a3.87,3.87,0,0,0-4.28,3.43l-.6,5.37a3.87,3.87,0,0,0,3.42,4.28l55.72,6.2Z"/><path class="cls-26" d="M418.7,594.7V579.8a26.33,26.33,0,0,1,6.43-17.25l36.23-41.81a26.22,26.22,0,0,1,5.48,13l6.88,55C463.25,589.42,435.4,592.68,418.7,594.7Z"/><path class="cls-25" d="M418.7,586,473,580a3.87,3.87,0,0,1,4.28,3.43l.6,5.37a3.87,3.87,0,0,1-3.42,4.28l-55.72,6.2Z"/><path class="cls-23" d="M377.66,323.43c9.24,6.54,29.43,22.33,41.22,42.8,0,0,.28-23-12.1-42.8Z"/></g></g></svg>