<?xml version="1.0" encoding="utf-8"?>
<!-- Generator: Adobe Illustrator 24.3.0, SVG Export Plug-In . SVG Version: 6.00 Build 0)  -->
<svg version="1.1" id="Layer_1" xmlns="http://www.w3.org/2000/svg" xmlns:xlink="http://www.w3.org/1999/xlink" x="0px" y="0px"
	 viewBox="0 0 1366 768" style="enable-background:new 0 0 1366 768;" xml:space="preserve">
<style type="text/css">
	.st0{fill:#A2795C;}
	.st1{fill:#623F33;}
	.st2{fill:#FFC84A;}
	.st3{fill:#8F6951;}
	.st4{fill:#AD8366;}
	.st5{fill:#95B995;}
	.st6{fill:#80A68B;}
	.st7{fill:#734A3E;}
	.st8{fill:#FDC88E;}
	.st9{fill:#F5B97A;}
	.st10{fill:#00BEA4;}
	.st11{fill:#FFD7A3;}
	.st12{fill:#E4B07B;}
	.st13{fill:#00AB9A;}
	.st14{fill:#5E342E;}
	.st15{fill:#C38762;}
	.st16{fill:#A46D4D;}
	.st17{fill:#D29771;}
	.st18{fill:#FFC85C;}
	.st19{fill:#FFA64E;}
	.st20{fill:#F6B47B;}
	.st21{fill:#E2A071;}
	.st22{fill:#9D6E48;}
	.st23{fill:#8D5F3D;}
	.st24{fill:#4F6E7F;}
	.st25{fill:#33546A;}
	.st26{fill:#E69F5F;}
	.st27{fill:#E09156;}
	.st28{fill:#FF4F4F;}
	.st29{fill:#F23F44;}
	.st30{fill:#FFB94C;}
</style>
<g>
	<g>
		<path class="st0" d="M502.36,375.62l-0.49-4.4c-0.19-1.74-1.76-3-3.5-2.8l-0.27,0.03l-4.73-37.86
			c-1.03-8.23-6.7-15.15-14.57-17.77l-26.3-8.77c-3.61-1.2-7.57-0.44-10.36,1.94l-7.75-2.58c-4.4-1.47-7.37-5.58-7.37-10.22v-17.38
			l23.21-9.67c12.05-5.02,19.89-16.79,19.89-29.84v-5.39c8.93,0,16.16-7.24,16.16-16.16c0-6.95-4.38-12.87-10.53-15.15l2.62-47.11
			c1.37-24.71-18.29-45.49-43.03-45.49h-81.28c-24.74,0-44.41,20.79-43.03,45.49l2.62,47.11c-6.15,2.29-10.53,8.21-10.53,15.15
			c0,8.93,7.24,16.16,16.16,16.16v5.39c0,13.05,7.85,24.82,19.89,29.84l23.21,9.67v17.38c0,4.64-2.97,8.76-7.37,10.22l-7.75,2.58
			c-2.78-2.37-6.75-3.14-10.36-1.94l-26.3,8.77c-7.87,2.62-13.54,9.54-14.57,17.77l-4.73,37.86l-0.27-0.03
			c-1.74-0.19-3.31,1.06-3.5,2.8l-0.49,4.4c-0.19,1.74,1.06,3.31,2.8,3.5l7.88,0.88v12.54c0,5.95,4.82,10.77,10.77,10.77h172.4
			c5.95,0,10.78-4.82,10.78-10.77V380l7.88-0.88C501.3,378.93,502.55,377.36,502.36,375.62z"/>
		<g>
			<path class="st1" d="M311.17,152.49l2.86,51.48h161.63l2.86-51.48c1.37-24.71-18.29-45.49-43.03-45.49H354.2
				C329.46,107,309.8,127.79,311.17,152.49z"/>
		</g>
		<g>
			<path class="st2" d="M454.64,403.99v-27.61h45.38l-5.76-45.79c-1.04-8.23-6.73-15.15-14.65-17.77l-26.45-8.77
				c-4.61-1.53-9.79,0.1-12.39,4.18c-9.6,15.05-26.48,25.04-45.73,25.04c-19.25,0-36.13-10-45.74-25.04
				c-2.6-4.08-7.78-5.71-12.39-4.18l-26.45,8.77c-7.92,2.62-13.62,9.54-14.65,17.77l-5.15,40.99l44.77,4.79v26.94h118.53v0.67
				H454.64z"/>
		</g>
		<g>
			<path class="st3" d="M427.02,275.36h-64.65v17.82c0,3.88-2.15,7.29-5.4,9.2C402.16,310.29,427.02,275.36,427.02,275.36z"/>
		</g>
		<path class="st4" d="M470.12,198.59v-21.55c0-14.88-12.06-26.94-26.94-26.94h-96.98c-14.88,0-26.94,12.06-26.94,26.94v21.55
			c-8.93,0-16.16,7.24-16.16,16.16s7.24,16.16,16.16,16.16v5.39c0,13.05,7.85,24.82,19.89,29.84l34.81,14.5
			c6.57,2.74,13.61,4.14,20.72,4.14l0,0c7.11,0,14.15-1.41,20.72-4.14l34.81-14.51c12.05-5.02,19.89-16.79,19.89-29.84v-5.39
			c8.93,0,16.16-7.24,16.16-16.16S479.05,198.59,470.12,198.59z"/>
		<g>
			<path class="st1" d="M356.99,220.14L356.99,220.14c-2.96,0-5.39-2.42-5.39-5.39v-5.39c0-2.96,2.42-5.39,5.39-5.39l0,0
				c2.96,0,5.39,2.42,5.39,5.39v5.39C362.37,217.71,359.95,220.14,356.99,220.14z"/>
		</g>
		<g>
			<path class="st1" d="M432.41,220.14L432.41,220.14c-2.96,0-5.39-2.42-5.39-5.39v-5.39c0-2.96,2.42-5.39,5.39-5.39l0,0
				c2.96,0,5.39,2.42,5.39,5.39v5.39C437.8,217.71,435.37,220.14,432.41,220.14z"/>
		</g>
		<g>
			<g>
				<path class="st3" d="M394.84,258c-9.58,0-18.54-2.36-24.58-6.47c-2.46-1.67-3.1-5.02-1.42-7.48c1.67-2.46,5.02-3.1,7.48-1.42
					c4.24,2.88,11.16,4.6,18.52,4.6s14.28-1.72,18.52-4.6c2.46-1.68,5.81-1.04,7.48,1.42c1.68,2.46,1.04,5.81-1.42,7.48
					C413.38,255.64,404.42,258,394.84,258z"/>
			</g>
		</g>
		<g>
			<path class="st5" d="M335.44,380.44v-12.19c0-5.18-1.87-10.19-5.26-14.11l-29.64-34.22c-2.39,3.03-3.99,6.69-4.49,10.67
				l-5.63,45.02L335.44,380.44z"/>
		</g>
		<g>
			<path class="st6" d="M335.44,373.35l-44.4-4.93c-1.74-0.19-3.31,1.06-3.5,2.8l-0.49,4.4c-0.19,1.74,1.06,3.31,2.8,3.5l45.59,5.07
				V373.35z"/>
		</g>
		<g>
			<path class="st5" d="M453.96,380.44v-12.19c0-5.18,1.87-10.19,5.26-14.11l29.64-34.22c2.39,3.03,3.99,6.69,4.49,10.67l5.63,45.02
				L453.96,380.44z"/>
		</g>
		<g>
			<path class="st6" d="M453.96,373.35l44.4-4.93c1.74-0.19,3.31,1.06,3.5,2.8l0.49,4.4c0.19,1.74-1.06,3.31-2.8,3.5l-45.59,5.07
				V373.35z"/>
		</g>
		<path class="st0" d="M340.82,237.71v-87.07c-12.29,2.5-21.55,13.36-21.55,26.39v21.55c-8.93,0-16.16,7.24-16.16,16.16
			s7.24,16.16,16.16,16.16v5.39c0,13.05,7.85,24.82,19.89,29.84l34.81,14.5c1.7,0.71,3.44,1.32,5.2,1.85
			c-15.32-11.21-25.53-21.01-31.55-27.44C343.24,250.35,340.82,244.15,340.82,237.71z"/>
	</g>
	<g>
	</g>
	<g>
	</g>
	<g>
	</g>
	<g>
	</g>
	<g>
	</g>
	<g>
	</g>
	<g>
	</g>
	<g>
	</g>
	<g>
	</g>
	<g>
	</g>
	<g>
	</g>
	<g>
	</g>
	<g>
	</g>
	<g>
	</g>
	<g>
	</g>
</g>
<g>
	<g>
		<g>
			<path class="st7" d="M673.57,530.85c-5.05-10.78-0.71-13.43-3.82-24.8c-2.02-7.41-6.53-10.4-8.08-16.61
				c-1.47-5.9,1.1-16.17-0.45-21.1c-2.79-8.92-6.3-11.27-8.08-18.63c-1.8-7.41,2.92-13.02,1.35-20.88
				c-1.97-9.84-5.51-13.88-6.96-19.08c-2.69-9.65-1.87-12.07-1.57-19.98c0.67-17.96-6.18-40-11.45-51.18
				c-5.97-12.66-13.8-19.72-23.11-23.57h-63.09v266.01C622.39,581.69,683,559.47,683,559.47
				C682.78,540.16,679.43,543.35,673.57,530.85z"/>
			<path class="st1" d="M485.22,315.01c-9.3,3.85-17.14,10.92-23.11,23.57c-5.27,11.18-12.12,33.22-11.45,51.18
				c0.3,7.91,1.12,10.33-1.57,19.98c-1.45,5.2-4.99,9.24-6.96,19.08c-1.57,7.86,3.14,13.47,1.35,20.88
				c-1.78,7.36-5.29,9.72-8.08,18.63c-1.55,4.94,1.02,15.2-0.45,21.1c-1.55,6.21-6.06,9.2-8.08,16.61
				c-3.1,11.38,1.23,14.03-3.82,24.8c-5.86,12.5-9.2,9.32-9.43,28.62c0,0,60.61,22.22,134.69,21.55V315.01H485.22z"/>
		</g>
		<g>
			<path class="st8" d="M648.24,584.27l-2.01-15.07l-4.41-33.04c-1.2-8.99-6.84-16.77-15-20.7l-20.78-10.02
				c-2.02-0.98-4.38-0.09-5.38,1.89l-12.65-4.65c-4.4-1.47-7.37-5.58-7.37-10.22v-17.38l23.21-9.67
				c12.05-5.02,19.89-16.79,19.89-29.84v-5.2c8.93,0,16.16-7.24,16.16-16.16s-7.24-16.16-16.16-16.16v-0.05
				c0.01,0.01,0.02,0.02,0.03,0.03c-19.37-19.33-74.42-16.19-75.43-42.35c-1.01,26.17-56.1,23.02-75.45,42.37l0,0
				c-8.93,0-16.16,7.24-16.16,16.16s7.24,16.16,16.16,16.16v5.2c0,13.05,7.85,24.82,19.89,29.84l23.21,9.67v17.38
				c0,4.64-2.97,8.76-7.37,10.22l-12.65,4.65c-1-1.98-3.36-2.86-5.38-1.89l-20.78,10.02c-8.17,3.94-13.8,11.72-15,20.7l-4.41,33.04
				l-2.01,15.07c-1.29,9.69,6.24,18.3,16.02,18.3h0h167.81l0,0C641.99,602.57,649.53,593.96,648.24,584.27z"/>
			<path class="st9" d="M515.99,474.62v17.82c0,3.83-2.03,7.31-5.22,9.23c45.07,7.79,69.87-27.05,69.87-27.05H515.99z"/>
		</g>
		<g>
			<path class="st10" d="M648.27,584.27l-6.42-48.12c-1.2-8.99-6.84-16.77-15-20.7l-20.78-10.02c-2.06-0.99-4.52-0.1-5.44,1.99
				c-13.62,30.93-37,45.31-52.28,52.05c-15.26-6.74-38.61-21.09-52.24-51.95c-0.94-2.12-3.39-3.1-5.48-2.09l-20.78,10.02
				c-8.17,3.94-13.8,11.72-15,20.7l-6.42,48.12c-1.29,9.69,6.25,18.3,16.02,18.3h167.8C642.03,602.57,649.56,593.96,648.27,584.27z"
				/>
		</g>
		<g>
			<circle class="st8" cx="472.92" cy="414.2" r="16.16"/>
		</g>
		<path class="st11" d="M623.74,397.84v-10.78c0-14.88-12.06-26.94-26.94-26.94h-96.98c-14.88,0-26.94,12.06-26.94,26.94v10.78
			c-8.93,0-16.16,7.24-16.16,16.16s7.24,16.16,16.16,16.16v5.39c0,13.05,7.85,24.82,19.89,29.84l34.81,14.5
			c6.57,2.74,13.61,4.14,20.72,4.14l0,0c7.11,0,14.15-1.41,20.72-4.14l34.81-14.51c12.05-5.02,19.89-16.79,19.89-29.84v-5.39
			c8.93,0,16.16-7.24,16.16-16.16S632.66,397.84,623.74,397.84z"/>
		<g>
			<path class="st8" d="M553.63,356.96l-8.01-4.71c0,0-13.91,17.87-51.18,26.94c-18.69,4.55-21.55,18.86-21.55,18.86h0
				c-8.93,0-16.16,7.24-16.16,16.16c0,8.93,7.24,16.16,16.16,16.16v5.39c0,13.05,7.85,24.82,19.89,29.84l34.81,14.5
				c1.7,0.71,3.44,1.32,5.2,1.85c-15.31-11.2-25.53-21-31.54-27.43c-4.39-4.7-6.82-10.91-6.82-17.35l0-39.8
				C509.25,386.36,546.29,387.71,553.63,356.96z"/>
		</g>
		<g>
			<path class="st1" d="M510.6,419.59L510.6,419.59c-2.96,0-5.39-2.42-5.39-5.39v-5.39c0-2.96,2.42-5.39,5.39-5.39l0,0
				c2.96,0,5.39,2.42,5.39,5.39v5.39C515.99,417.16,513.56,419.59,510.6,419.59z"/>
		</g>
		<g>
			<path class="st1" d="M586.02,419.59L586.02,419.59c-2.96,0-5.39-2.42-5.39-5.39v-5.39c0-2.96,2.42-5.39,5.39-5.39l0,0
				c2.96,0,5.39,2.42,5.39,5.39v5.39C591.41,417.16,588.99,419.59,586.02,419.59z"/>
		</g>
		<g>
			<g>
				<path class="st12" d="M548.35,457.45c-9.58,0-18.54-2.36-24.58-6.47c-2.46-1.67-3.1-5.02-1.42-7.48
					c1.67-2.46,5.02-3.1,7.48-1.42c4.24,2.88,11.16,4.6,18.52,4.6s14.28-1.72,18.52-4.6c2.46-1.68,5.81-1.04,7.48,1.42
					c1.68,2.46,1.04,5.81-1.42,7.48C566.89,455.09,557.93,457.45,548.35,457.45z"/>
			</g>
		</g>
		<g>
			<path class="st13" d="M551.79,566.98c26.03-12.24,45.95-32.83,57.98-59.58l-3.69-1.78c-2.09-1.01-4.55-0.03-5.48,2.09
				c-13.63,30.86-36.97,45.21-52.24,51.95c-15.26-6.74-38.61-21.09-52.24-51.95c-0.94-2.12-3.39-3.1-5.48-2.09l-3.69,1.78
				c12.03,26.74,31.95,47.34,57.98,59.58l3.44,1.62L551.79,566.98z"/>
		</g>
		<g>
			<path class="st13" d="M489.05,579.49c0-5.99-2-11.81-5.67-16.54l-26.49-34.06c-1.01,2.29-1.74,4.72-2.08,7.27l-6.42,48.12
				c-1.29,9.69,6.25,18.3,16.02,18.3h24.64V579.49z"/>
		</g>
		<g>
			<path class="st13" d="M607.57,579.49c0-5.99,2-11.81,5.67-16.54l26.49-34.06c1.01,2.29,1.74,4.72,2.08,7.27l6.42,48.12
				c1.29,9.69-6.25,18.3-16.02,18.3h-24.64V579.49z"/>
		</g>
		<path class="st7" d="M564.56,290.29c-10.94,0-15.94,5.1-16.19,5.36c-0.25-0.26-5.25-5.36-16.19-5.36
			c-29.8,0-95.96,41.08-70.04,102.36l10.78,5.39c19.35-19.35,74.44-16.2,75.45-42.37c1.01,26.17,56.1,23.02,75.45,42.37l10.77-5.39
			C660.52,331.37,594.36,290.29,564.56,290.29z"/>
		<g>
			<path class="st1" d="M532.15,290.09c-29.8,0-95.96,41.08-70.04,102.36v5.39h10.77c4.25-4.25,10.23-7.41,16.98-10.04
				c3.56-63.7,38.04-97.26,58.45-92.32l0.02-0.03C548.16,295.27,543.18,290.09,532.15,290.09z"/>
		</g>
	</g>
	<g>
	</g>
	<g>
	</g>
	<g>
	</g>
	<g>
	</g>
	<g>
	</g>
	<g>
	</g>
	<g>
	</g>
	<g>
	</g>
	<g>
	</g>
	<g>
	</g>
	<g>
	</g>
	<g>
	</g>
	<g>
	</g>
	<g>
	</g>
	<g>
	</g>
</g>
<g>
	<g>
		<path class="st14" d="M354.97,417.38c0.01-0.18,0.01-0.26,0.02-0.44c2.53-1.97,4.19-5.01,4.19-8.47c0-3.51-1.7-6.6-4.3-8.56
			c2.08-1.96,3.4-4.73,3.4-7.82c0-4.29-2.53-7.97-6.16-9.7c1.58-1.88,2.57-4.26,2.57-6.91c0-5.24-3.74-9.6-8.7-10.57
			c1.49-1.85,2.41-4.16,2.41-6.72c0-5.95-4.82-10.78-10.77-10.78c-0.54,0-1.06,0.08-1.58,0.16c0.98-1.62,1.58-3.51,1.58-5.55
			c0-5.95-4.82-10.78-10.77-10.78c-1.09,0-2.12,0.21-3.12,0.51c0.35-1.07,0.59-2.19,0.59-3.37c0-5.95-4.82-10.78-10.78-10.78
			c-0.3,0-0.58,0.06-0.87,0.09c-0.14-5.83-4.88-10.53-10.75-10.53c-0.95,0-1.85,0.16-2.73,0.39c-10.56-8.21-32.63-14.03-42.39-14.03
			c-9.85,0-16.57,1.34-20.84,2.68c-3.96,1.25-8.24,1.25-12.2,0c-4.27-1.34-10.99-2.68-20.84-2.68c-9.76,0-31.83,5.82-42.39,14.03
			c-0.88-0.23-1.78-0.39-2.73-0.39c-5.86,0-10.61,4.69-10.75,10.53c-0.29-0.02-0.57-0.09-0.87-0.09c-5.95,0-10.77,4.82-10.77,10.78
			c0,1.19,0.24,2.31,0.59,3.37c-0.99-0.3-2.03-0.51-3.12-0.51c-5.95,0-10.78,4.82-10.78,10.78c0,2.04,0.6,3.92,1.58,5.55
			c-0.52-0.08-1.04-0.16-1.58-0.16c-5.95,0-10.78,4.82-10.78,10.78c0,2.56,0.93,4.87,2.41,6.72c-4.96,0.97-8.7,5.33-8.7,10.57
			c0,2.64,0.99,5.03,2.57,6.91c-3.63,1.73-6.16,5.41-6.16,9.7c0,3.09,1.32,5.86,3.4,7.82c-2.6,1.97-4.3,5.05-4.3,8.56
			c0,3.46,1.66,6.5,4.19,8.47c0.01,0.18,0.01,0.26,0.02,0.44c-2.15,1.97-3.53,4.78-3.53,7.93c0,4.42,2.67,8.21,6.47,9.87
			c-1.5,1.85-2.43,4.18-2.43,6.74c0,5.51,4.15,10,9.49,10.65c-0.6,1.34-0.96,2.83-0.96,4.39c0,5.95,4.82,10.77,10.78,10.77
			c0.96,0,1.87-0.16,2.75-0.4c-0.3,0.99-0.51,2.01-0.51,3.09c0,5.95,4.82,10.78,10.78,10.78c2.81,0,5.35-1.1,7.27-2.87
			c-0.02,0.28-0.09,0.56-0.09,0.85c0,5.95,4.82,10.77,10.78,10.77c4.09,0,7.6-2.31,9.43-5.66c1.01,4.9,5.35,8.58,10.55,8.58
			c4.68,0,8.63-3,10.11-7.17c2.05,4.17,6.66,6.84,11.82,5.83h64.79c5.15,1.01,9.77-1.66,11.82-5.83c1.49,4.17,5.43,7.17,10.11,7.17
			c5.2,0,9.54-3.68,10.55-8.58c1.83,3.36,5.34,5.66,9.43,5.66c5.95,0,10.78-4.82,10.78-10.77c0-0.29-0.06-0.56-0.09-0.85
			c1.92,1.76,4.46,2.87,7.27,2.87c5.95,0,10.77-4.82,10.77-10.78c0-1.08-0.21-2.11-0.51-3.09c0.88,0.23,1.79,0.4,2.75,0.4
			c5.95,0,10.78-4.82,10.78-10.77c0-1.57-0.35-3.05-0.96-4.39c5.34-0.64,9.49-5.14,9.49-10.65c0-2.57-0.93-4.89-2.43-6.74
			c3.81-1.66,6.47-5.45,6.47-9.87C358.5,422.16,357.12,419.35,354.97,417.38z"/>
		<path class="st15" d="M297.06,516.12l-27.21-10.01c-4.4-1.47-7.37-5.58-7.37-10.22v-17.38l23.21-9.67
			c12.05-5.02,19.89-16.79,19.89-29.84v-5.39c8.93,0,16.16-7.24,16.16-16.16s-7.24-16.16-16.16-16.16v-10.77
			c0-14.88-12.06-26.94-26.94-26.94h-96.98c-14.88,0-26.94,12.06-26.94,26.94v10.77c-8.93,0-16.16,7.24-16.16,16.16
			s7.24,16.16,16.16,16.16V439c0,13.05,7.85,24.82,19.89,29.84l23.21,9.67v17.38c0,4.64-2.97,8.76-7.37,10.22l-27.2,10.01
			c-14.83,5.46-24.69,19.59-24.69,35.39v43.73c0,5.95,4.82,10.78,10.77,10.78h161.63c5.95,0,10.77-4.82,10.77-10.78v-43.73
			C321.75,535.71,311.89,521.58,297.06,516.12z"/>
		<g>
			<path class="st16" d="M197.84,478.06v17.82c0,3.83-2.03,7.31-5.22,9.23c45.07,7.79,69.87-27.05,69.87-27.05H197.84z"/>
		</g>
		<path class="st17" d="M305.59,401.29v-10.77c0-14.88-12.06-26.94-26.94-26.94h-96.98c-14.88,0-26.94,12.06-26.94,26.94V439
			c0,13.05,7.85,24.82,19.89,29.84l34.81,14.5c6.57,2.74,13.61,4.14,20.72,4.14l0,0c7.11,0,14.15-1.41,20.72-4.14l34.81-14.51
			c12.05-5.02,19.89-16.79,19.89-29.84v-5.39c8.93,0,16.16-7.24,16.16-16.16S314.51,401.29,305.59,401.29z"/>
		<path class="st1" d="M192.45,422.84L192.45,422.84c-2.96,0-5.39-2.42-5.39-5.39v-5.39c0-2.96,2.42-5.39,5.39-5.39l0,0
			c2.96,0,5.39,2.42,5.39,5.39v5.39C197.84,420.42,195.41,422.84,192.45,422.84z"/>
		<path class="st1" d="M267.87,422.84L267.87,422.84c-2.96,0-5.39-2.42-5.39-5.39v-5.39c0-2.96,2.42-5.39,5.39-5.39l0,0
			c2.96,0,5.39,2.42,5.39,5.39v5.39C273.26,420.42,270.84,422.84,267.87,422.84z"/>
		<path class="st16" d="M229.87,460.7c-9.58,0-18.54-2.36-24.58-6.47c-2.46-1.67-3.1-5.02-1.42-7.48c1.67-2.46,5.02-3.1,7.48-1.42
			c4.24,2.88,11.16,4.6,18.52,4.6s14.28-1.72,18.52-4.6c2.46-1.68,5.81-1.04,7.48,1.42c1.68,2.46,1.04,5.81-1.42,7.48
			C248.41,458.35,239.45,460.7,229.87,460.7z"/>
		<path class="st15" d="M183.02,457.67c-4.37-4.68-6.73-10.86-6.73-17.26v-76.3c-12.29,2.5-21.55,13.36-21.55,26.39v10.77
			c-8.93,0-16.16,7.24-16.16,16.16s7.24,16.16,16.16,16.16V439c0,13.05,7.85,24.82,19.89,29.84l34.81,14.5
			c1.7,0.71,3.44,1.32,5.2,1.85C199.26,473.94,189.02,464.11,183.02,457.67z"/>
		<path class="st18" d="M291.72,513.53l-4.15,6.63c-12.43,19.89-34.24,31.98-57.7,31.98l0,0c-23.46,0-45.27-12.09-57.7-31.98
			l-4.15-6.63c-1.56-2.49-4.82-3.28-7.34-1.76l-17.7,10.62c-2.58,1.55-3.39,4.92-1.8,7.48l24.03,38.45h129.3l24.03-38.45
			c1.6-2.56,0.79-5.92-1.8-7.48l-17.7-10.62C296.54,510.25,293.27,511.04,291.72,513.53z"/>
		<path class="st19" d="M313.64,520.34l-9.24-5.55l-25.53,40.85c-4.92,7.88-13.56,12.66-22.84,12.66H204.3
			c-9.29,0-17.92-4.78-22.84-12.66l-25.53-40.85l-9.24,5.55l24.83,39.72c2.24,3.59-0.34,8.24-4.57,8.24h-1.43v37.71h129.3V568.3
			h-1.43c-4.23,0-6.81-4.65-4.57-8.24L313.64,520.34z"/>
	</g>
	<g>
	</g>
	<g>
	</g>
	<g>
	</g>
	<g>
	</g>
	<g>
	</g>
	<g>
	</g>
	<g>
	</g>
	<g>
	</g>
	<g>
	</g>
	<g>
	</g>
	<g>
	</g>
	<g>
	</g>
	<g>
	</g>
	<g>
	</g>
	<g>
	</g>
</g>
<g>
	<g>
		<path class="st20" d="M491.58,589.1l-0.84-7.54c0-0.01-0.01-0.01-0.01-0.01l-3.42,0.38l-4.73-37.86
			c-1.03-8.23-6.7-15.15-14.57-17.77l-30.25-10.08c-2.7-0.9-5.68,0.44-6.71,3.15c0,0,0,0,0,0l-14.78-4.93
			c-0.01,0-0.02-0.02-0.02-0.03V489l23.21-9.67c12.05-5.02,19.89-16.79,19.89-29.84v-5.39c8.93,0,16.16-7.24,16.16-16.16
			c0-3.71-1.26-7.13-3.36-9.86c3.24-16.04,9.14-47.28,8.73-60.18c-0.28-8.62-5.73-20.16-21.55-26.94
			c-28.27-12.12-63.71-15.71-75.4-26.92v-0.02c0,0,0.14,0.01,0.13,0.01c0,0,0.54-0.01,0.54-0.01v-0.63
			c-11.8,11.31-47.57,14.94-76.1,27.17c-15.96,6.84-21.47,18.49-21.75,27.19c-0.42,13.02,5.54,44.57,8.81,60.75
			c-2.11,2.75-3.37,6.19-3.37,9.93c0,9.01,7.3,16.31,16.31,16.31v4.74c0,13.05,7.85,24.82,19.89,29.84L351.6,489v17.66
			c0,4.64-2.97,8.76-7.37,10.22l-7.43,2.48c-0.01,0-0.01-0.01-0.02-0.01c-1.04-2.7-4.01-4.04-6.71-3.14l-30.25,10.08
			c-7.87,2.62-13.54,9.54-14.57,17.77l-4.73,37.86l-0.27-0.03c-1.74-0.19-3.31,1.06-3.5,2.8l-0.49,4.4c-0.19,1.74,1.06,3.31,2.8,3.5
			l7.88,0.88v12.54c0,5.95,4.82,10.77,10.77,10.77h26.94h118.53h37.68c0.02,0,0.03-0.01,0.03-0.03v-23.28l7.88-0.88
			C490.52,592.41,491.78,590.84,491.58,589.1z"/>
		<g>
			<path class="st21" d="M351.6,488.84v17.82c0,3.83-2.03,7.31-5.22,9.23c45.07,7.79,69.87-27.05,69.87-27.05H351.6L351.6,488.84z"
				/>
		</g>
		<g>
			<path class="st22" d="M481.02,357.9c-0.28-8.62-5.73-20.16-21.55-26.94c-28.27-12.12-63.71-15.71-75.55-26.92v-0.02
				c0.14,0,0.14,0.01,0.13,0.01c0,0-0.01-0.01,0.54-0.01v0.02c-12.24,11.21-47.68,14.8-75.95,26.92
				c-15.82,6.78-21.27,18.32-21.55,26.94c-0.57,17.71,10.77,70.04,10.77,70.33h172.38C470.25,427.94,481.59,375.61,481.02,357.9z"/>
		</g>
		<g>
			<path class="st23" d="M383.92,304.32v0.02c-11.7,11.21-47.16,14.8-75.45,26.92c-15.82,6.78-21.29,18.32-21.56,26.94
				c-0.57,17.71,10.78,70.04,10.78,70.04h48.51c0,0,0-31.55,0-48.49c0-35.92,37.73-52.98,37.73-75.43c0,0-0.01,0.01-0.01,0.01
				C383.93,304.32,383.93,304.32,383.92,304.32z"/>
		</g>
		<g>
			<path class="st24" d="M482.58,544.07c-1.03-8.23-6.7-15.15-14.57-17.77l-30.25-10.08c-2.59-0.86-5.42,0.33-6.57,2.81
				c-7.48,16.13-18.04,33.67-47.28,54.67c-29.23-21-39.8-38.55-47.28-54.67c-1.15-2.47-3.98-3.67-6.57-2.81l-30.25,10.08
				c-7.87,2.62-13.54,9.54-14.57,17.77l-5.12,40.99l44.52,4.79v26.94h118.53v-26.94l44.52-4.79L482.58,544.07z"/>
		</g>
		<path class="st8" d="M459.35,412.07v-10.78c0-14.88-12.06-26.94-26.94-26.94h-96.98c-14.88,0-26.94,12.06-26.94,26.94v10.78
			c-8.93,0-16.16,7.24-16.16,16.16s7.24,16.16,16.16,16.16v5.39c0,13.05,7.85,24.82,19.89,29.84l34.81,14.5
			c6.57,2.74,13.61,4.14,20.72,4.14l0,0c7.11,0,14.15-1.41,20.72-4.14l34.81-14.51c12.05-5.02,19.89-16.79,19.89-29.84v-5.39
			c8.93,0,16.16-7.24,16.16-16.16S468.28,412.07,459.35,412.07z"/>
		<g>
			<path class="st1" d="M346.21,433.33L346.21,433.33c-2.96,0-5.39-2.42-5.39-5.39v-5.39c0-2.96,2.42-5.39,5.39-5.39l0,0
				c2.96,0,5.39,2.42,5.39,5.39v5.39C351.6,430.9,349.17,433.33,346.21,433.33z"/>
		</g>
		<g>
			<path class="st1" d="M421.64,433.33L421.64,433.33c-2.96,0-5.39-2.42-5.39-5.39v-5.39c0-2.96,2.42-5.39,5.39-5.39l0,0
				c2.96,0,5.39,2.42,5.39,5.39v5.39C427.02,430.9,424.6,433.33,421.64,433.33z"/>
		</g>
		<g>
			<g>
				<path class="st21" d="M384.07,471.19c-9.58,0-18.54-2.36-24.58-6.47c-2.46-1.67-3.1-5.02-1.42-7.48
					c1.67-2.46,5.02-3.1,7.48-1.42c4.24,2.88,11.16,4.6,18.52,4.6c7.36,0,14.28-1.72,18.52-4.6c2.46-1.68,5.81-1.04,7.48,1.42
					c1.68,2.46,1.04,5.81-1.42,7.48C402.61,468.83,393.65,471.19,384.07,471.19z"/>
			</g>
		</g>
		<path class="st20" d="M336.78,468.16c-4.37-4.68-6.73-10.86-6.73-17.26v-76.3c-12.29,2.5-21.55,13.36-21.55,26.39v10.77
			c-8.93,0-16.16,7.24-16.16,16.16s7.24,16.16,16.16,16.16v5.39c0,13.05,7.85,24.82,19.89,29.84l34.81,14.5
			c1.7,0.71,3.44,1.32,5.2,1.85C353.02,484.43,342.78,474.59,336.78,468.16z"/>
		<g>
			<path class="st25" d="M324.66,593.63v-12.19c0-5.18-1.87-10.19-5.26-14.11l-29.64-34.22c-2.39,3.03-3.99,6.69-4.49,10.67
				l-5.63,45.02C288.21,589.31,311,591.98,324.66,593.63z"/>
		</g>
		<g>
			<path class="st24" d="M324.66,586.54l-44.4-4.93c-1.74-0.19-3.31,1.06-3.5,2.8l-0.49,4.4c-0.19,1.74,1.06,3.31,2.8,3.5
				l45.59,5.07V586.54z"/>
		</g>
		<g>
			<path class="st25" d="M443.19,593.63v-12.19c0-5.18,1.87-10.19,5.26-14.11l29.64-34.22c2.39,3.03,3.99,6.69,4.49,10.67
				l5.63,45.02C479.64,589.31,456.85,591.98,443.19,593.63z"/>
		</g>
		<g>
			<path class="st24" d="M443.19,586.54l44.4-4.93c1.74-0.19,3.31,1.06,3.5,2.8l0.49,4.4c0.19,1.74-1.06,3.31-2.8,3.5l-45.59,5.07
				V586.54z"/>
		</g>
		<path class="st22" d="M409.61,371.66c7.56,5.35,24.08,18.27,33.72,35.02c0,0,0.24-18.82-9.9-35.02
			C433.43,371.66,409.61,371.66,409.61,371.66z"/>
	</g>
	<g>
	</g>
	<g>
	</g>
	<g>
	</g>
	<g>
	</g>
	<g>
	</g>
	<g>
	</g>
	<g>
	</g>
	<g>
	</g>
	<g>
	</g>
	<g>
	</g>
	<g>
	</g>
	<g>
	</g>
	<g>
	</g>
	<g>
	</g>
	<g>
	</g>
</g>
<g>
	<g>
		<path class="st26" d="M-325.12-179.01c0-0.61-0.6-2.49-1.54-2.49c-0.5,0-0.71,0.12-0.71,0.12s-0.21-0.12-0.71-0.12
			c-0.94,0-1.54,1.88-1.54,2.49c0,0.53,0.3,0.76,0.36,0.95c0.08,0.25,0,0.59,0,0.59c0.5,0.4,1.42,0.47,1.42,0.47h0.95
			c0,0,0.92-0.07,1.42-0.47c0,0-0.08-0.34,0-0.59C-325.41-178.25-325.12-178.48-325.12-179.01z"/>
		<path class="st27" d="M-329.62-179.51c0,0.53,0.3,0.76,0.36,0.95c0.08,0.25,0,0.59,0,0.59c0.5,0.4,1.42,0.47,1.42,0.47l0.26-0.16
			c0-0.57-0.03-1.26-0.03-1.26l-1.42-1.07c0,0,2.58-0.84,1.66-1.9c0,0-0.21-0.12-0.71-0.12C-329.02-182-329.62-180.12-329.62-179.51
			z"/>
		<path class="st20" d="M-325-175.86l-0.01-0.1c0-0.04-0.04-0.07-0.08-0.06l-0.01,0l-0.1-0.83c-0.02-0.18-0.15-0.33-0.32-0.39
			l-0.58-0.19c-0.08-0.03-0.17-0.01-0.23,0.04l-0.17-0.06c-0.1-0.03,0.5-0.22,0.5-0.22v-0.38l-0.15-0.21
			c0.26-0.11,0.44-0.37,0.15-0.66v-0.12c0.49,0,0.64-0.16,0.64-0.36s-0.16-0.36-0.64-0.36v-0.24c0.29-0.33-0.3-1.01-0.3-1.01h-2.07
			c-0.35,0-0.62,0.27-0.62,0.59v0.24c-0.21,0-0.38,0.16-0.38,0.36c0,0.2,0.17,0.36,0.38,0.36v0.12c0,0.29,0.18,0.55,0.46,0.66
			l0.54,0.21v0.8c0,0-0.15,0.19-0.24,0.22l-0.17,0.06c-0.06-0.05-0.15-0.07-0.23-0.04l-0.58,0.19c-0.17,0.06-0.3,0.21-0.32,0.39
			l-0.1,0.83l-0.01,0c-0.04,0-0.07,0.02-0.08,0.06l-0.01,0.1c0,0.04,0.02,0.07,0.06,0.08l0.67,0.02v0.28
			c-0.5,0.13-0.26,0.48-0.26,0.48h0.59h2.61h0.59c0.13-0.25,0.24-0.35,0.47-0.48v-0.28l-0.06-0.02
			C-325.02-175.78-325-175.82-325-175.86z"/>
		<path class="st21" d="M-328-178v0.38c0,0.08-0.04,0.16-0.11,0.2c0.99,0.17,1.54-0.58,1.54-0.58l0,0L-328-178z"/>
		<path class="st8" d="M-326-180.17v-0.24c0-0.33-0.24-0.59-0.54-0.59h-1.93c-0.3,0-0.54,0.27-0.54,0.59v0.24
			c-0.18,0-0.32,0.16-0.32,0.36c0,0.2,0.14,0.36,0.32,0.36v0.12c0,0.29,0.16,0.55,0.4,0.66l0.69,0.32c0.13,0.06,0.27,0.09,0.41,0.09
			l0,0c0.14,0,0.28-0.03,0.41-0.09l0.69-0.32c0.24-0.11,0.4-0.37,0.4-0.66v-0.12c0.18,0,0.32-0.16,0.32-0.36
			C-325.68-180.01-325.82-180.17-326-180.17z"/>
		<path class="st1" d="M-328.2-179.28L-328.2-179.28c-0.07,0-0.12-0.05-0.8-0.12v-0.12c0.68-0.07,0.74-0.12,0.8-0.12l0,0
			c0.07,0,0.12,0.05,0.2,0.12v0.12C-328.08-179.33-328.13-179.28-328.2-179.28z"/>
		<path class="st1" d="M-326.54-179.28L-326.54-179.28c-0.07,0-0.12-0.05-0.46-0.12v-0.12c0.34-0.07,0.39-0.12,0.46-0.12l0,0
			c0.07,0,0.12,0.05-0.46,0.12v0.12C-326.42-179.33-326.47-179.28-326.54-179.28z"/>
		<path class="st21" d="M-327.37-178.44c-0.21,0-0.41-0.05-0.54-0.14c-0.05-0.04-0.07-0.11-0.03-0.16c0.04-0.05,0.11-0.07,0.16-0.03
			c0.09,0.06,0.25,0.1,0.41,0.1c0.16,0,0.31-0.04,0.41-0.1c0.05-0.04,0.13-0.02,0.16,0.03c0.04,0.05,0.02,0.13-0.03,0.16
			C-326.96-178.49-327.16-178.44-327.37-178.44z"/>
		<path class="st20" d="M-327.07-180.67c-0.77,0.32-1.95,0.68-1.93,0.68v0.24c-0.22,0-0.38,0.16-0.38,0.36s0.16,0.36,0.38,0.36v0.12
			c-0.03,0.29,0.14,0.55,0.41,0.66l0.77,0.32c0.04,0.02,0.08,0.03,0.11,0.04c-0.34-0.25-0.56-0.46-0.69-0.6
			c-0.1-0.1-0.15-0.24,0.4-0.38v-0.89c0.93-0.5,1.1-0.8,1.1-0.8L-327.07-180.67z"/>
		<path class="st28" d="M-326-175v-1h0.93l-0.13-0.85c-0.02-0.18-0.15-0.33-0.32-0.39l-0.58-0.19c-0.1-0.03-0.21,0-0.27,0.09
			c-0.21,0.33-0.58,0.55-1,0.55c-0.42,0-0.79-0.22-1-0.55c-0.06-0.09-0.17-0.13-0.27-0.09l-0.58,0.19c-0.17,0.06-0.3,0.21-0.32,0.39
			l-0.11,0.9l0.65,0.11v0.84h2.94v0H-326z"/>
		<path class="st29" d="M-329-175.75v-0.27c0-0.11-0.04-0.22-0.12-0.31l-0.65-0.75c-0.05,0.07-0.09,0.15-0.1,0.23l-0.12,0.99
			C-329.8-175.85-329.3-175.79-329-175.75z"/>
		<path class="st30" d="M-329-175.91l-0.98-0.11c-0.04,0-0.07,0.02-0.08,0.06l-0.01,0.1c0,0.04,0.02,0.07,0.06,0.08l1,0.11V-175.91z
			"/>
		<path class="st29" d="M-326-175.75v-0.27c0-0.11,0.04-0.22,0.12-0.31l0.65-0.75c0.05,0.07,0.09,0.15,0.1,0.23l0.12,0.99
			C-325.2-175.85-325.7-175.79-326-175.75z"/>
		<path class="st30" d="M-326-175.91l0.98-0.11c0.04,0,0.07,0.02,0.08,0.06l0.01,0.1c0,0.04-0.02,0.07-0.06,0.08l-1,0.11V-175.91z"
			/>
		<path class="st30" d="M-327.37-175.71c-0.39,0-0.71,0.32-0.71,0.71h1.42C-326.66-175.39-326.98-175.71-327.37-175.71z"/>
		<path class="st26" d="M-329-180.33v0.35c0.15,0,1.19-0.18,1.88-0.59c0,0,0.6,0.78,1.12,0.83v-0.6c0.36-0.3,0.1-0.55-0.21-0.65
			h-2.32C-328.85-180.88-329.1-180.63-329-180.33z"/>
		<path class="st27" d="M-328.43-180.99c-0.31,0-0.57,0.25-0.57,0.55v0.35c0.02,0,0.05,0,0.09,0c0.13-0.04,1.12-0.39,1.59-0.9
			L-328.43-180.99z"/>
	</g>
	<g>
	</g>
	<g>
	</g>
	<g>
	</g>
	<g>
	</g>
	<g>
	</g>
	<g>
	</g>
	<g>
	</g>
	<g>
	</g>
	<g>
	</g>
	<g>
	</g>
	<g>
	</g>
	<g>
	</g>
	<g>
	</g>
	<g>
	</g>
	<g>
	</g>
</g>
</svg>
